<?xml version="1.0" standalone="no"?>
<!DOCTYPE svg PUBLIC "-//W3C//DTD SVG 20010904//EN"
 "http://www.w3.org/TR/2001/REC-SVG-20010904/DTD/svg10.dtd">
<svg version="1.0" xmlns="http://www.w3.org/2000/svg"
 width="254.000000pt" height="254.000000pt" viewBox="0 0 254.000000 254.000000"
 preserveAspectRatio="xMidYMid meet">
<metadata>
Created by potrace 1.11, written by Peter Selinger 2001-2013
</metadata>
<g transform="translate(0.000000,254.000000) scale(0.100000,-0.100000)"
fill="#000000" stroke="none">
<path d="M1250 1834 c-171 -34 -229 -48 -263 -66 -123 -62 -190 -130 -246
-246 -15 -32 -34 -68 -43 -82 -19 -28 -39 -168 -26 -176 5 -3 6 -30 2 -60 -7
-61 25 -188 50 -197 8 -3 30 -39 49 -79 61 -131 130 -178 345 -233 108 -28
180 -31 304 -11 115 19 168 49 272 156 118 120 159 212 172 388 7 78 6 82 -13
82 -42 0 -61 56 -43 128 12 46 11 52 -14 99 -50 90 -204 231 -303 275 -48 22
-183 33 -243 22z m-179 -411 c1 -42 69 -238 83 -238 9 0 82 190 92 240 6 33 9
35 45 35 l40 0 -17 -32 c-10 -18 -45 -103 -79 -188 -55 -137 -65 -155 -85
-155 -21 0 -29 17 -81 158 -32 88 -65 170 -73 183 -22 33 -21 34 29 34 l45 0
1 -37z m431 -150 c-4 -213 -13 -246 -68 -269 -54 -23 -66 -17 -34 14 42 42 51
92 48 259 l-3 148 -37 -3 c-33 -3 -36 -1 -31 17 5 18 13 21 67 21 l61 0 -3
-187z"/>
</g>
</svg>
